<?xml version="1.0" encoding="UTF-8" standalone="no"?>
<!-- Created with Inkscape (http://www.inkscape.org/) -->

<svg
   xmlns:dc="http://purl.org/dc/elements/1.1/"
   xmlns:cc="http://creativecommons.org/ns#"
   xmlns:rdf="http://www.w3.org/1999/02/22-rdf-syntax-ns#"
   xmlns:svg="http://www.w3.org/2000/svg"
   xmlns="http://www.w3.org/2000/svg"
   xmlns:sodipodi="http://sodipodi.sourceforge.net/DTD/sodipodi-0.dtd"
   xmlns:inkscape="http://www.inkscape.org/namespaces/inkscape"
   version="1.1"
   id="svg834"
   xml:space="preserve"
   width="141.02313"
   height="140.94064"
   viewBox="0 0 141.02313 140.94064"
   sodipodi:docname="escudo_rectitifcacionesavina.svg"
   inkscape:version="0.92.3 (2405546, 2018-03-11)"><metadata
     id="metadata840"><rdf:RDF><cc:Work
         rdf:about=""><dc:format>image/svg+xml</dc:format><dc:type
           rdf:resource="http://purl.org/dc/dcmitype/StillImage" /><dc:title></dc:title></cc:Work></rdf:RDF></metadata><defs
     id="defs838"><clipPath
       clipPathUnits="userSpaceOnUse"
       id="clipPath850"><path
         d="M 0,792 H 612 V 0 H 0 Z"
         id="path848"
         inkscape:connector-curvature="0" /></clipPath></defs><sodipodi:namedview
     pagecolor="#ffffff"
     bordercolor="#666666"
     borderopacity="1"
     objecttolerance="10"
     gridtolerance="10"
     guidetolerance="10"
     inkscape:pageopacity="0"
     inkscape:pageshadow="2"
     inkscape:window-width="1600"
     inkscape:window-height="873"
     id="namedview836"
     showgrid="false"
     inkscape:zoom="1.1477093"
     inkscape:cx="348.55874"
     inkscape:cy="51.583267"
     inkscape:window-x="0"
     inkscape:window-y="0"
     inkscape:window-maximized="1"
     inkscape:current-layer="g1312"
     fit-margin-top="1"
     fit-margin-left="1"
     fit-margin-right="1"
     fit-margin-bottom="1" /><g
     id="g842"
     inkscape:groupmode="layer"
     inkscape:label="LOGO RECTIFICACIONESAVIÑA"
     transform="matrix(1.3333333,0,0,-1.3333333,-12.762087,1052.721)"><g
       id="g1312"
       transform="translate(-94.100486,469.19548)"><g
         transform="matrix(0.93277139,0,0,1,195.47763,237.84752)"
         id="g948"
         style="fill:#002142;fill-opacity:1"><path
           inkscape:connector-curvature="0"
           id="path950"
           style="fill:#002142;fill-opacity:1;fill-rule:nonzero;stroke:none"
           d="m 0,0 c -10.738,-13.091 -25.018,-19.088 -41.404,-19.446 -16.153,0.297 -29.698,5.749 -40.403,17.398 -9.434,10.268 -13.656,22.508 -12.258,36.42 1.231,12.251 6.775,22.424 15.934,30.625 7.964,7.131 17.284,11.514 27.846,13.029 14.27,2.047 27.557,-0.672 39.55,-8.879 C -0.935,62.44 5.958,53.505 9.054,42.003 13.217,26.531 10.128,12.348 0,0 m -2.685,66.854 c -12.98,11.667 -28.351,16.295 -45.643,14.53 -12.421,-1.269 -23.401,-6.041 -32.557,-14.549 -12.354,-11.478 -18.149,-25.681 -16.44,-42.553 1.288,-12.715 7.041,-23.367 16.502,-31.892 12.162,-10.959 26.595,-15.681 42.888,-14.728 12.378,0.725 23.493,4.93 33.044,12.845 12.229,10.134 18.673,23.17 19.055,39.208 -0.114,1.767 -0.139,3.629 -0.366,5.466 -1.556,12.593 -7.074,23.215 -16.483,31.673" /></g><g
         transform="matrix(0.93277139,0,0,1,188.746,244.32892)"
         id="g1036"
         style="fill:#800000"><path
           inkscape:connector-curvature="0"
           id="path1038"
           style="fill:#800000;fill-opacity:1;fill-rule:nonzero;stroke:none"
           d="m 0,0 c -7.207,-9.065 -16.605,-14.371 -28.057,-16.05 -9.135,-1.34 -17.929,-0.09 -26.179,4.03 -11.571,5.778 -19.262,14.826 -22.07,27.598 -1.753,7.972 -0.816,15.733 2.593,23.184 0.31,0.678 0.714,0.777 1.34,0.775 4.45,-0.01 8.9,0.003 13.35,0.003 1.756,0 2.108,-0.319 2.114,-2.102 0.014,-4.291 -0.009,-8.58 -0.022,-12.87 -0.005,-1.97 -0.019,-3.941 -0.032,-5.912 -0.011,-1.689 -0.245,-1.923 -1.941,-1.965 -0.304,-0.007 -0.607,-0.035 -1.076,-0.063 0.026,-0.49 0.046,-0.857 0.068,-1.268 1.821,0 3.551,0.01 5.281,-0.003 1.548,-0.01 3.098,-10e-4 4.642,-0.086 1.032,-0.056 1.343,0.314 0.988,1.422 -0.459,0 -0.954,0.042 -1.439,-0.008 -1.042,-0.111 -1.599,0.451 -1.619,1.37 -0.061,2.847 -0.022,5.698 -0.022,8.656 1.579,0.381 2.968,-0.129 3.976,-1.472 1.134,-1.511 2.16,-3.106 3.203,-4.683 0.916,-1.385 1.791,-2.796 2.682,-4.197 0.519,-0.815 1.195,-1.13 2.219,-1.094 2.696,0.09 5.397,0.03 8.255,0.03 -0.272,-0.702 -0.498,-1.339 -0.764,-1.96 -0.547,-1.276 -1.159,-2.526 -1.664,-3.819 -0.662,-1.693 -1.636,-2.871 -3.664,-2.756 -0.224,0.012 -0.472,-0.418 -0.708,-0.643 0.248,-0.254 0.491,-0.722 0.744,-0.727 2.706,-0.054 5.414,-0.025 8.121,-0.04 1.058,-0.006 0.756,0.682 0.774,1.368 -0.753,0.04 -1.437,0.061 -2.119,0.116 -0.952,0.077 -1.472,0.544 -1.151,1.535 0.699,2.165 1.424,4.322 2.202,6.461 0.089,0.246 0.576,0.487 0.883,0.492 2.476,0.04 4.953,0.054 7.428,-0.01 0.36,-0.01 0.909,-0.405 1.029,-0.743 0.713,-1.997 1.349,-4.022 1.961,-6.053 0.403,-1.341 0.164,-1.621 -1.28,-1.718 -0.302,-0.021 -0.604,-0.049 -0.91,-0.073 -0.376,-1.087 0.012,-1.388 1.069,-1.385 7.39,0.025 14.78,0.004 22.17,-0.006 0.301,0 0.603,-0.026 1.208,-0.055 C 2.322,3.408 1.28,1.609 0,0 m -52.084,38.438 c 0.003,0.797 0.499,1.229 1.27,1.183 1.148,-0.068 2.334,-0.077 3.427,-0.383 2.504,-0.7 3.831,-2.506 3.893,-4.986 0.061,-2.435 -1.596,-4.992 -3.947,-5.707 -1.442,-0.438 -2.991,-0.525 -4.65,-0.796 0,3.833 -0.01,7.261 0.007,10.689 m 20.902,-21.783 h 1.411 c -0.105,-1.126 -0.673,-1.43 -1.743,-1.169 0.117,0.41 0.224,0.789 0.332,1.169 m 5.987,10.752 c 0.167,-0.014 0.334,-0.029 0.501,-0.044 1.123,-3.449 2.247,-6.899 3.408,-10.467 h -7.95 c 1.372,3.57 2.707,7.041 4.041,10.511 M 8.457,6.783 C 2.381,6.787 -3.694,6.788 -9.77,6.796 c -2.168,0.003 -2.995,0.516 -3.744,2.572 -2.586,7.105 -5.128,14.225 -7.694,21.337 -0.177,0.49 -0.411,0.959 -0.606,1.41 -1.696,-0.841 -3.265,-1.618 -4.68,-2.319 -0.042,-0.704 0.071,-1.358 -0.137,-1.885 -1.483,-3.759 -3.031,-7.491 -4.558,-11.232 -1.117,-0.003 -2.234,-0.003 -3.351,-0.008 -1.194,-0.005 -2.157,0.399 -2.893,1.399 -1.465,1.992 -2.956,3.965 -4.491,5.904 -1.011,1.276 -2.116,2.478 -3.153,3.684 0.56,0.157 1.382,0.343 2.171,0.619 2.607,0.912 4.175,2.68 4.473,5.49 0.281,2.657 -1.002,4.504 -3.196,5.673 -1.265,0.674 -2.734,1.233 -4.142,1.315 -3.43,0.2 -6.878,0.09 -10.318,0.107 -7.12,0.036 -14.239,0.067 -21.358,0.126 -0.703,0.006 -1.094,-0.164 -1.398,-0.86 -3.23,-7.416 -4.386,-15.152 -3.08,-23.11 2.512,-15.298 11.197,-26.208 24.814,-33.193 10.091,-5.177 20.906,-6.541 32.039,-4.413 11.733,2.243 21.522,7.933 29.057,17.289 2.429,3.018 4.397,6.32 5.963,10.082 -0.595,0 -1.044,-0.001 -1.491,0" /></g><g
         transform="matrix(0.93277139,0,0,1,200.9349,271.69712)"
         id="g1040"
         style="fill:#800000"><path
           inkscape:connector-curvature="0"
           id="path1042"
           style="fill:#800000;fill-opacity:1;fill-rule:nonzero;stroke:none"
           d="m 0,0 c -1.667,14.34 -8.961,25.256 -21.056,32.871 -11.069,6.969 -23.252,9.047 -36.089,6.664 -10.282,-1.909 -19.171,-6.631 -26.377,-14.264 -2.106,-2.23 -3.882,-4.771 -5.809,-7.17 0.102,-0.134 0.205,-0.268 0.308,-0.403 1.499,0 3.002,0.063 4.497,-0.021 0.996,-0.057 1.642,0.257 2.231,1.069 2.148,2.962 4.721,5.542 7.649,7.72 10.669,7.938 22.65,10.632 35.651,8.2 10.609,-1.984 19.452,-7.23 26.023,-15.886 6.912,-9.105 9.323,-19.343 7.092,-30.6 -0.305,-1.538 -0.745,-3.049 -1.127,-4.598 h 5.39 C 0.068,-11.024 0.644,-5.538 0,0" /></g></g></g></svg>