<?xml version="1.0" encoding="UTF-8" standalone="no"?>
<!-- Created with Inkscape (http://www.inkscape.org/) -->

<svg
   xmlns:dc="http://purl.org/dc/elements/1.1/"
   xmlns:cc="http://creativecommons.org/ns#"
   xmlns:rdf="http://www.w3.org/1999/02/22-rdf-syntax-ns#"
   xmlns:svg="http://www.w3.org/2000/svg"
   xmlns="http://www.w3.org/2000/svg"
   xmlns:sodipodi="http://sodipodi.sourceforge.net/DTD/sodipodi-0.dtd"
   xmlns:inkscape="http://www.inkscape.org/namespaces/inkscape"
   version="1.1"
   id="svg834"
   xml:space="preserve"
   width="629.3877"
   height="144.5829"
   viewBox="0 0 629.3877 144.5829"
   sodipodi:docname="logotipo_rectitifcacionesavina.svg"
   inkscape:version="0.92.3 (2405546, 2018-03-11)"><metadata
     id="metadata840"><rdf:RDF><cc:Work
         rdf:about=""><dc:format>image/svg+xml</dc:format><dc:type
           rdf:resource="http://purl.org/dc/dcmitype/StillImage" /><dc:title /></cc:Work></rdf:RDF></metadata><defs
     id="defs838"><clipPath
       clipPathUnits="userSpaceOnUse"
       id="clipPath850"><path
         d="M 0,792 H 612 V 0 H 0 Z"
         id="path848"
         inkscape:connector-curvature="0" /></clipPath></defs><sodipodi:namedview
     pagecolor="#ffffff"
     bordercolor="#666666"
     borderopacity="1"
     objecttolerance="10"
     gridtolerance="10"
     guidetolerance="10"
     inkscape:pageopacity="0"
     inkscape:pageshadow="2"
     inkscape:window-width="1600"
     inkscape:window-height="873"
     id="namedview836"
     showgrid="false"
     inkscape:zoom="1.1477093"
     inkscape:cx="358.57871"
     inkscape:cy="52.327549"
     inkscape:window-x="0"
     inkscape:window-y="0"
     inkscape:window-maximized="1"
     inkscape:current-layer="g1312"
     fit-margin-top="1"
     fit-margin-left="1"
     fit-margin-right="1"
     fit-margin-bottom="1" /><g
     id="g842"
     inkscape:groupmode="layer"
     inkscape:label="LOGO RECTIFICACIONESAVIÑA"
     transform="matrix(1.3333333,0,0,-1.3333333,-2.7421212,1055.619)"><g
       id="g1312"
       transform="translate(-94.100486,469.19548)"><g
         transform="translate(473.9443,275.1152)"
         id="g952"
         style="fill:#002142;fill-opacity:1"><path
           inkscape:connector-curvature="0"
           id="path954"
           style="fill:#002142;fill-opacity:1;fill-rule:nonzero;stroke:none"
           d="m 0,0 c -0.021,0.212 -0.868,0.482 -1.337,0.484 -5.494,0.024 -10.989,-0.021 -16.483,0.001 -2.422,0.01 -2.465,0 -2.254,-2.401 0.055,-0.632 0.306,-0.895 0.941,-0.874 0.812,0.027 1.626,0.029 2.439,-0.004 3.009,-0.12 4.673,-1.596 4.952,-4.577 0.308,-3.307 0.623,-6.624 0.688,-9.942 0.164,-8.231 0.189,-16.464 0.266,-24.697 0.002,-0.29 -0.028,-0.581 -0.063,-1.235 -0.561,0.614 -0.919,0.983 -1.253,1.373 -11.714,13.643 -23.434,27.282 -35.127,40.943 -0.912,1.066 -1.938,1.497 -3.332,1.464 -4.138,-0.099 -8.279,-0.115 -12.418,-0.139 -1.2,-0.007 -2.401,0.034 -3.597,0.111 -0.765,0.05 -1.123,-0.135 -1.135,-0.997 -0.03,-2.294 -0.066,-2.293 2.233,-2.294 0.347,0 0.696,0.006 1.044,-0.003 2.302,-0.054 4.054,-1.095 5.361,-2.958 1.347,-1.922 1.757,-4.109 1.731,-6.379 -0.118,-10.552 -0.221,-21.105 -0.451,-31.653 -0.062,-2.88 -0.358,-5.785 -0.887,-8.615 -0.464,-2.485 -1.598,-3.146 -4.106,-3.157 -0.426,-0.002 -0.852,0.002 -1.277,-10e-4 -1.505,-0.011 -1.523,-0.032 -1.506,-1.846 0.012,-1.441 0.094,-1.506 1.501,-1.502 5.455,0.015 10.91,0.025 16.365,0.024 2.52,-10e-4 2.339,-0.572 2.268,2.454 -0.006,0.291 -0.486,0.764 -0.803,0.818 -0.754,0.131 -1.543,0.035 -2.316,0.079 -2.33,0.134 -3.444,1.053 -3.974,3.308 -0.158,0.674 -0.248,1.37 -0.294,2.061 -0.854,12.735 -1.026,25.488 -0.946,38.247 0.002,0.326 0.048,0.651 0.095,1.254 0.454,-0.386 0.757,-0.584 0.987,-0.847 5.455,-6.224 10.873,-12.479 16.356,-18.679 8.122,-9.182 16.277,-18.337 24.46,-27.466 0.67,-0.747 1.587,-1.371 2.512,-1.767 1.427,-0.612 2.02,-0.154 2.111,1.374 0.039,0.655 0.018,1.314 0.028,1.972 0.201,12.442 0.351,24.885 0.635,37.326 0.093,4.051 0.393,8.109 0.861,12.134 0.41,3.52 0.919,3.79 4.461,3.83 0.371,0.005 1.037,0.059 1.063,0.188 C -0.035,-1.738 0.088,-0.852 0,0" /></g><g
         transform="translate(268.3291,242.7559)"
         id="g956"
         style="fill:#002142;fill-opacity:1"><path
           inkscape:connector-curvature="0"
           id="path958"
           style="fill:#002142;fill-opacity:1;fill-rule:nonzero;stroke:none"
           d="m 0,0 c 0.102,0.334 0.18,0.659 0.298,0.969 2.773,7.238 5.536,14.479 8.351,21.701 0.258,0.662 0.846,1.195 1.281,1.788 0.388,-0.609 0.923,-1.169 1.142,-1.834 C 13.441,15.448 15.761,8.256 18.091,1.066 18.194,0.749 18.264,0.42 18.375,0 Z m 44.424,-23.19 c -0.31,0.001 -0.619,0.003 -0.929,0 -3.106,-0.025 -5.173,1.561 -6.47,4.25 -0.653,1.352 -1.249,2.742 -1.756,4.156 -4.585,12.78 -9.15,25.568 -13.71,38.358 -1.283,3.597 -2.508,7.215 -3.808,10.806 -0.455,1.258 -0.876,1.296 -1.964,0.521 -0.941,-0.67 -1.894,-1.362 -2.935,-1.844 C 10.86,32.135 8.811,31.332 6.767,30.527 6.045,30.243 5.505,29.894 6.045,29.113 6.621,28.281 6.63,27.441 6.31,26.583 5.3,23.874 4.303,21.158 3.201,18.486 -1.891,6.148 -6.985,-6.19 -12.153,-18.497 c -1.322,-3.147 -3.622,-4.991 -7.313,-4.722 -2.155,0.157 -2.188,0.002 -2.04,-2.181 0.005,-0.078 0.02,-0.155 0.019,-0.232 -0.013,-0.682 0.298,-0.967 0.999,-0.915 1.157,0.085 2.319,0.165 3.478,0.158 5.455,-0.032 10.909,-0.068 16.363,-0.172 1.071,-0.019 1.515,0.327 1.462,1.366 -0.016,0.308 -0.033,0.622 0.004,0.926 0.092,0.759 -0.275,1.06 -0.986,1.062 -1.044,0.004 -2.089,0.003 -3.134,0.02 -3.466,0.053 -4.396,1.228 -3.324,4.485 1.602,4.872 3.337,9.701 4.985,14.558 0.216,0.636 0.558,0.78 1.182,0.778 6.308,-0.022 12.615,-0.027 18.922,0.005 0.719,0.004 1.004,-0.259 1.209,-0.9 1.342,-4.188 2.739,-8.358 4.069,-12.551 0.431,-1.356 0.812,-2.743 1.037,-4.144 0.224,-1.398 -0.356,-2.017 -1.755,-2.127 -0.962,-0.076 -1.932,-0.056 -2.896,-0.122 -0.329,-0.023 -0.911,-0.145 -0.928,-0.279 -0.108,-0.827 -0.221,-1.699 -0.039,-2.489 0.066,-0.284 0.939,-0.536 1.447,-0.542 4.022,-0.044 8.046,-0.024 12.069,-0.024 4.1,0.001 8.201,0.001 12.301,0 0.625,-10e-4 1.261,-0.076 1.452,0.774 0.457,2.032 0.044,2.574 -2.006,2.575" /></g><g
         transform="translate(495.376,242.7666)"
         id="g960"
         style="fill:#002142;fill-opacity:1"><path
           inkscape:connector-curvature="0"
           id="path962"
           style="fill:#002142;fill-opacity:1;fill-rule:nonzero;stroke:none"
           d="m 0,0 c 0.143,0.444 0.24,0.806 0.374,1.153 2.748,7.164 5.483,14.333 8.277,21.48 0.266,0.679 0.906,1.212 1.37,1.812 0.356,-0.601 0.834,-1.162 1.047,-1.809 C 13.466,15.348 15.823,8.046 18.19,0.747 18.26,0.534 18.318,0.317 18.412,0 Z m 44.498,-23.201 c -0.349,0.001 -0.696,0.003 -1.045,0.001 -3.057,-0.017 -5.099,1.556 -6.398,4.183 -0.649,1.312 -1.22,2.671 -1.712,4.049 C 29.61,1.09 23.898,17.155 18.18,33.217 c -0.181,0.509 -0.364,1.017 -0.578,1.512 -0.316,0.726 -0.859,0.912 -1.479,0.414 C 13.331,32.902 10.097,31.567 6.729,30.497 5.859,30.221 5.688,29.791 6.091,28.931 6.359,28.354 6.564,27.546 6.37,26.99 5.267,23.825 4.105,20.677 2.832,17.576 -2.019,5.765 -6.921,-6.026 -11.802,-17.826 c -1.528,-3.695 -4.011,-5.857 -8.289,-5.402 -1.438,0.154 -1.426,-0.034 -1.461,-1.993 -0.021,-1.204 0.524,-1.344 1.56,-1.334 5.995,0.058 11.99,0.089 17.985,0.034 2.997,-0.027 3.069,-0.039 2.732,2.97 -0.004,0.034 -0.04,0.065 -0.23,0.351 -1.164,0 -2.501,-0.018 -3.837,0.004 -3.365,0.053 -4.343,1.269 -3.309,4.413 1.612,4.909 3.372,9.77 5.036,14.663 0.203,0.595 0.507,0.742 1.091,0.741 6.345,-0.017 12.691,-0.021 19.037,0.004 0.666,0.003 0.931,-0.228 1.128,-0.845 0.805,-2.537 1.717,-5.04 2.503,-7.583 0.933,-3.018 1.835,-6.05 2.631,-9.106 0.343,-1.316 -0.326,-2.067 -1.683,-2.18 -1,-0.083 -2.01,-0.057 -3.012,-0.129 -0.319,-0.023 -0.885,-0.173 -0.899,-0.311 -0.091,-0.832 -0.203,-1.721 0.017,-2.497 0.085,-0.299 1.03,-0.5 1.581,-0.497 4.951,0.028 9.904,0.151 14.855,0.165 3.133,0.007 6.266,-0.12 9.398,-0.197 0.657,-0.015 1.243,0.013 1.43,0.826 0.45,1.962 0.02,2.526 -1.964,2.528" /></g><g
         transform="translate(370.333,275.6328)"
         id="g964"
         style="fill:#002142;fill-opacity:1"><path
           inkscape:connector-curvature="0"
           id="path966"
           style="fill:#002142;fill-opacity:1;fill-rule:nonzero;stroke:none"
           d="m 0,0 c -6.462,-0.035 -12.924,-0.032 -19.386,-0.015 -1.693,0.004 -1.704,0.036 -1.699,-1.613 0.004,-1.621 0.055,-1.672 1.705,-1.674 0.31,0 0.619,0.002 0.929,0 3.292,-0.023 4.253,-1.267 3.428,-4.442 -0.02,-0.074 -0.052,-0.146 -0.079,-0.219 -1.42,-3.955 -2.732,-7.955 -4.285,-11.858 -3.551,-8.925 -7.221,-17.803 -10.843,-26.7 l -0.332,0.036 c -0.072,0.166 -0.154,0.328 -0.215,0.498 -3.525,9.843 -7.112,19.667 -10.536,29.546 -1.131,3.267 -1.958,6.654 -2.704,10.035 -0.402,1.826 0.26,2.518 2.101,2.922 0.6,0.13 1.228,0.16 1.844,0.174 1.16,0.027 2.324,0.051 3.482,-0.004 0.926,-0.045 1.276,0.353 1.22,1.228 -0.021,0.309 -0.033,0.622 0.003,0.928 0.112,0.956 -0.376,1.175 -1.236,1.173 -8.512,-0.022 -17.025,-0.015 -25.539,-0.028 -0.29,-0.001 -0.822,-0.092 -0.834,-0.189 -0.101,-0.864 -0.211,-1.754 -0.082,-2.601 0.036,-0.228 0.872,-0.469 1.344,-0.477 3.471,-0.055 4.21,-0.571 5.467,-3.847 3.467,-9.043 6.898,-18.101 10.437,-27.116 3.201,-8.154 6.517,-16.263 9.803,-24.383 0.4,-0.986 0.752,-2.158 2.11,-2.175 1.325,-0.016 1.754,1.056 2.207,2.064 5.02,11.2 10.016,22.411 15.086,33.589 2.535,5.586 5.151,11.136 7.834,16.652 1.771,3.638 4.654,5.565 8.867,5.215 1.27,-0.107 1.249,0.05 1.298,2.041 C 1.421,-0.14 0.94,0.006 0,0" /></g><g
         transform="translate(399.8281,219.5771)"
         id="g968"
         style="fill:#002142;fill-opacity:1"><path
           inkscape:connector-curvature="0"
           id="path970"
           style="fill:#002142;fill-opacity:1;fill-rule:nonzero;stroke:none"
           d="M 0,0 C -1.431,-0.02 -2.864,0.006 -4.293,0.082 -5.766,0.161 -6.465,0.866 -6.621,2.307 -6.667,2.729 -6.695,3.155 -6.695,3.579 -6.699,19 -6.704,34.42 -6.693,49.841 c 10e-4,1.975 0.7,2.713 2.693,2.86 1.117,0.083 2.243,0.04 3.365,0.053 1.416,0.017 1.438,0.114 1.474,1.927 0.022,1.155 -0.463,1.4 -1.538,1.385 -4.217,-0.058 -8.435,-0.024 -12.652,-0.024 -10e-4,-0.007 -10e-4,-0.014 -10e-4,-0.021 -3.985,0 -7.97,-0.003 -11.957,0.002 -2.375,0.004 -2.24,0.569 -2.243,-2.289 -0.001,-0.686 0.286,-0.988 0.966,-0.981 1.122,0.012 2.244,0.002 3.366,10e-4 4.015,-10e-4 4.685,-0.578 4.684,-4.617 -0.002,-14.955 -0.06,-29.91 -0.109,-44.866 -0.007,-2.195 -0.854,-3.087 -3.059,-3.212 -1.39,-0.08 -2.786,-0.031 -4.177,-0.088 -0.356,-0.015 -0.993,-0.184 -1.01,-0.334 -0.093,-0.869 -0.152,-1.779 0.037,-2.616 0.052,-0.228 1,-0.356 1.539,-0.357 8.202,-0.02 16.404,0 24.606,-0.018 2.051,-0.005 1.995,-0.052 2.056,2.017 C 1.377,-0.287 0.962,0.013 0,0" /></g><g
         transform="translate(232.8623,308.2793)"
         id="g972"
         style="fill:#002142;fill-opacity:1"><path
           inkscape:connector-curvature="0"
           id="path974"
           style="fill:#002142;fill-opacity:1;fill-rule:nonzero;stroke:none"
           d="m 0,0 c -0.941,-0.123 -1.902,-0.101 -2.906,-0.147 0,3.436 -0.02,6.601 0.029,9.765 0.005,0.33 0.35,0.825 0.657,0.952 C 0.078,11.519 3.903,9.708 4.726,7.339 5.86,4.076 3.552,0.464 0,0 m 13.975,-10.569 c -1.993,-0.29 -3.139,0.851 -4.153,2.261 -1.24,1.725 -2.484,3.449 -3.798,5.117 -0.772,0.981 -1.683,1.854 -2.47,2.708 0.974,0.358 2.129,0.684 3.198,1.192 3.331,1.581 4.362,7.052 0.55,9.479 -1.468,0.936 -3.035,1.581 -4.764,1.613 -4.059,0.075 -8.12,0.057 -12.18,0.07 -0.141,0 -0.283,-0.082 -0.479,-0.142 0.021,-0.36 0.041,-0.691 0.059,-1.006 2.715,-0.41 2.726,-0.41 2.713,-3.188 -0.025,-5.407 -0.059,-10.814 -0.099,-16.222 -0.012,-1.661 -0.127,-1.81 -1.773,-1.814 -1.055,-0.002 -1.176,-0.444 -0.818,-1.347 3.139,0 6.266,-0.014 9.393,0.029 0.241,0.003 0.477,0.41 0.715,0.63 -0.279,0.223 -0.543,0.616 -0.84,0.643 -2.107,0.197 -2.114,0.181 -2.176,2.326 -0.032,1.081 -0.092,2.162 -0.109,3.243 -0.019,1.222 -0.004,2.445 -0.004,3.685 1.463,0.289 2.635,-0.03 3.567,-1.063 0.438,-0.486 0.849,-1.005 1.206,-1.553 1.476,-2.263 2.891,-4.567 4.416,-6.795 0.346,-0.505 1.029,-1.051 1.589,-1.088 1.964,-0.13 3.941,-0.047 5.913,-0.037 0.105,0 0.211,0.076 0.344,0.128 z" /></g><g
         transform="translate(473.9482,314.6162)"
         id="g976"
         style="fill:#002142;fill-opacity:1"><path
           inkscape:connector-curvature="0"
           id="path978"
           style="fill:#002142;fill-opacity:1;fill-rule:nonzero;stroke:none"
           d="m 0,0 c 2.537,5.55 8.926,6.089 12.851,1.272 1.885,-2.314 2.848,-5.058 2.849,-8.777 -0.031,-1.702 -0.465,-3.971 -1.748,-5.973 -2.909,-4.54 -8.841,-4.926 -12.271,-0.747 C -1.887,-9.877 -2.272,-4.973 0,0 m -0.876,-16.438 c 3.324,-1.765 6.845,-2.524 10.633,-1.971 7.08,1.033 12.821,8.073 9.88,16.278 C 17.859,2.827 12.949,5.976 7.155,5.956 0.307,5.932 -4.699,1.865 -6.013,-4.744 c -0.863,-4.346 1.474,-9.75 5.137,-11.694" /></g><g
         transform="translate(500.8252,315.2559)"
         id="g980"
         style="fill:#002142;fill-opacity:1"><path
           inkscape:connector-curvature="0"
           id="path982"
           style="fill:#002142;fill-opacity:1;fill-rule:nonzero;stroke:none"
           d="m 0,0 c 0.004,-5.021 -0.115,-10.044 -0.28,-15.063 -0.065,-1.947 -0.397,-2.138 -2.3,-2.462 -0.253,-0.043 -0.443,-0.454 -0.663,-0.696 0.251,-0.2 0.497,-0.566 0.753,-0.574 1.624,-0.046 3.25,-0.012 4.875,-0.007 0.797,0.003 1.594,0.001 2.45,0.001 -0.025,0.48 -0.043,0.816 -0.06,1.133 -2.877,0.659 -2.897,0.658 -2.981,3.764 -0.118,4.325 -0.202,8.651 -0.298,12.977 -0.009,0.37 -10e-4,0.74 -10e-4,1.111 0.092,0.018 0.185,0.037 0.277,0.055 0.234,-0.255 0.47,-0.506 0.699,-0.764 5.172,-5.854 10.331,-11.717 15.534,-17.541 0.418,-0.469 1.137,-0.67 1.716,-0.996 0.133,0.563 0.368,1.124 0.385,1.69 0.186,6.178 0.328,12.357 0.506,18.536 0.061,2.117 0.218,2.258 2.314,2.576 V 4.839 H 15.077 V 3.691 c 0.233,-0.028 0.383,-0.056 0.535,-0.063 2.17,-0.104 2.607,-0.427 2.7,-2.577 0.187,-4.282 0.266,-8.57 0.379,-12.856 0.005,-0.158 -0.089,-0.319 -0.175,-0.601 -0.373,0.409 -0.663,0.712 -0.936,1.029 C 13.221,-6.304 8.869,-1.225 4.495,3.835 4.135,4.252 3.632,4.813 3.175,4.833 0.795,4.933 -1.593,4.88 -3.994,4.88 V 3.763 C -0.786,3.206 -0.001,2.59 0,0" /></g><g
         transform="translate(547.7109,302.1406)"
         id="g984"
         style="fill:#002142;fill-opacity:1"><path
           inkscape:connector-curvature="0"
           id="path986"
           style="fill:#002142;fill-opacity:1;fill-rule:nonzero;stroke:none"
           d="m 0,0 c -0.854,-0.839 -1.555,-1.862 -2.496,-2.575 -0.952,-0.722 -2.069,-1.438 -3.209,-1.65 -1.609,-0.299 -3.313,-0.241 -4.964,-0.139 -1.946,0.119 -2.47,0.732 -2.548,2.71 -0.079,2.008 -0.07,4.019 -0.096,6.028 -0.007,0.522 -10e-4,1.046 -10e-4,1.513 1.163,0 2.166,0.019 3.167,-0.005 1.918,-0.046 2.427,-0.377 3.019,-2.224 0.294,-0.914 0.724,-1.073 1.456,-0.675 v 7.47 C -6.587,10.841 -7.066,10.733 -7.248,9.739 -7.421,8.787 -7.758,7.72 -8.85,7.528 -10.301,7.273 -11.798,7.272 -13.263,7.164 v 9.44 c 4.757,0.763 8.795,-0.113 11.662,-4.129 0.023,-0.032 0.05,-0.07 0.082,-0.08 0.325,-0.107 0.65,-0.208 0.975,-0.311 0.077,0.329 0.288,0.695 0.21,0.982 -0.365,1.339 -0.865,2.642 -1.206,3.987 -0.204,0.806 -0.602,0.981 -1.388,0.976 -5.766,-0.038 -11.533,-0.02 -17.299,-0.027 -0.255,0 -0.51,-0.059 -0.842,-0.101 0.021,-0.397 0.038,-0.723 0.057,-1.094 0.389,-0.027 0.691,-0.057 0.993,-0.066 1.846,-0.054 2.098,-0.294 2.112,-2.082 0.042,-5.72 0.086,-11.439 0.112,-17.159 0.008,-1.722 -0.125,-1.83 -1.838,-1.875 -0.154,-0.005 -0.31,-0.016 -0.464,-0.002 -0.969,0.086 -1.262,-0.326 -0.946,-1.193 0.07,-0.049 0.102,-0.091 0.134,-0.091 6.5,-0.018 13.001,-0.044 19.501,-0.017 0.35,0.001 0.884,0.381 1.016,0.711 0.575,1.43 1.055,2.901 1.509,4.374 C 1.192,-0.349 0.968,-0.013 0.882,0.28 0.583,0.192 0.196,0.193 0,0" /></g><g
         transform="translate(249.7236,297.7959)"
         id="g988"
         style="fill:#002142;fill-opacity:1"><path
           inkscape:connector-curvature="0"
           id="path990"
           style="fill:#002142;fill-opacity:1;fill-rule:nonzero;stroke:none"
           d="m 0,0 c -0.387,-0.001 -0.775,-0.055 -1.16,-0.028 -1.013,0.07 -1.196,-0.401 -0.9,-1.301 0.732,0 1.423,10e-4 2.113,0 5.65,-0.011 11.301,-0.04 16.95,-0.003 0.517,0.003 1.324,0.295 1.495,0.677 0.643,1.437 1.097,2.963 1.573,4.47 C 20.139,4.03 19.99,4.511 19.852,4.55 19.586,4.624 19.155,4.573 18.97,4.394 18.113,3.557 17.407,2.545 16.475,1.814 15.562,1.101 14.489,0.314 13.401,0.159 11.473,-0.117 9.479,0.018 7.514,0.066 6.532,0.091 5.873,0.791 5.847,1.704 5.765,4.55 5.817,7.399 5.817,10.23 c 0.894,0 1.929,0.021 2.963,-0.003 1.92,-0.045 2.463,-0.393 3.023,-2.218 0.314,-1.023 0.806,-1.03 1.473,-0.678 v 7.448 C 12.353,15.197 11.881,15.09 11.688,14.101 11.478,13.018 11.049,11.927 9.764,11.765 8.407,11.593 7.026,11.606 5.665,11.54 v 9.564 c 1.136,0 2.174,0.006 3.212,-0.002 1.864,-0.016 3.768,0.023 5.294,-1.272 1.118,-0.948 2.105,-2.048 3.203,-3.021 0.304,-0.27 0.794,-0.33 1.199,-0.488 0.077,0.148 0.155,0.294 0.232,0.441 -0.473,1.546 -0.989,3.08 -1.402,4.641 -0.21,0.791 -0.599,0.978 -1.39,0.972 -5.765,-0.04 -11.532,-0.022 -17.298,-0.029 -0.257,0 -0.514,-0.054 -0.831,-0.089 0.019,-0.398 0.034,-0.728 0.053,-1.122 0.6,-0.028 1.132,-0.049 1.665,-0.076 C 0.466,21.013 0.975,20.61 0.982,19.693 1.033,13.511 1.087,7.327 1.137,1.145 1.143,0.389 0.769,0.001 0,0" /></g><g
         transform="translate(412.0088,316.7988)"
         id="g992"
         style="fill:#002142;fill-opacity:1"><path
           inkscape:connector-curvature="0"
           id="path994"
           style="fill:#002142;fill-opacity:1;fill-rule:nonzero;stroke:none"
           d="M 0,0 C 0.153,-0.003 0.307,-0.006 0.461,-0.009 1.504,-3.207 2.548,-6.405 3.628,-9.718 H -3.736 C -2.468,-6.416 -1.233,-3.209 0,0 m -3.488,-20.302 v 1.267 c -0.553,0 -1.01,-0.012 -1.466,0.002 -1.482,0.044 -1.842,0.488 -1.4,1.868 0.574,1.8 1.184,3.59 1.86,5.353 0.12,0.313 0.631,0.666 0.969,0.674 2.242,0.06 4.487,0.013 6.73,0.043 0.604,0.009 0.888,-0.184 1.064,-0.774 0.539,-1.811 1.16,-3.597 1.714,-5.402 0.433,-1.407 0.242,-1.614 -1.259,-1.791 -0.307,-0.038 -0.574,-0.407 -0.859,-0.623 0.273,-0.227 0.542,-0.648 0.818,-0.653 3.132,-0.047 6.266,-0.047 9.399,0.002 0.267,0.004 0.526,0.448 0.789,0.688 -0.259,0.203 -0.527,0.592 -0.773,0.58 -1.888,-0.101 -2.801,0.97 -3.374,2.578 C 8.403,-9.989 6.065,-3.494 3.725,3 3.55,3.487 3.309,3.95 3.121,4.373 1.548,3.589 0.111,2.873 -1.172,2.233 -1.227,1.581 -1.141,0.976 -1.34,0.486 c -2.409,-5.932 -4.847,-11.852 -7.31,-17.761 -0.485,-1.161 -1.378,-1.858 -2.721,-1.757 -1.007,0.075 -1.082,-0.447 -0.821,-1.27 z" /></g><g
         transform="translate(297.4927,314.3418)"
         id="g996"
         style="fill:#002142;fill-opacity:1"><path
           inkscape:connector-curvature="0"
           id="path998"
           style="fill:#002142;fill-opacity:1;fill-rule:nonzero;stroke:none"
           d="m 0,0 c 0.25,-0.039 0.636,0.049 0.783,0.229 0.438,0.537 0.773,1.153 1.173,1.721 0.721,1.025 1.502,2.01 2.873,2.134 1.686,0.152 3.378,0.24 5.261,0.37 0,-0.848 0.002,-1.459 0,-2.069 -0.018,-5.793 -0.032,-11.586 -0.06,-17.379 -0.006,-1.306 -0.265,-1.549 -1.568,-1.582 -0.604,-0.015 -1.208,-0.002 -1.909,-0.002 0.031,-0.547 0.052,-0.905 0.072,-1.259 h 11.54 c -0.02,0.434 -0.036,0.788 -0.056,1.256 -0.492,0 -0.872,-0.002 -1.253,0.001 -1.734,0.011 -2.042,0.309 -2.141,2.082 -0.015,0.269 -0.02,0.541 -0.02,0.81 -0.003,5.716 -0.006,11.432 -0.003,17.149 10e-4,0.29 0.061,0.58 0.104,0.971 1.753,-0.114 3.429,-0.104 5.057,-0.378 0.801,-0.135 1.632,-0.672 2.231,-1.252 0.679,-0.656 1.082,-1.589 1.671,-2.349 0.208,-0.267 0.619,-0.379 0.936,-0.56 0.129,0.336 0.337,0.667 0.365,1.011 0.03,0.373 -0.103,0.76 -0.172,1.14 C 24.583,3.733 24.281,5.422 24.007,6.95 22.429,6.579 21.034,6.017 19.619,5.963 15.488,5.805 11.346,5.773 7.212,5.847 5.288,5.881 3.212,5.582 1.451,7.427 0.763,4.947 0.139,2.738 -0.44,0.518 -0.476,0.382 -0.178,0.028 0,0" /></g><g
         transform="translate(340.0225,318.8779)"
         id="g1000"
         style="fill:#002142;fill-opacity:1"><path
           inkscape:connector-curvature="0"
           id="path1002"
           style="fill:#002142;fill-opacity:1;fill-rule:nonzero;stroke:none"
           d="M 0,0 C 1.74,-0.028 1.933,-0.205 1.934,-1.922 1.937,-7.446 1.93,-12.97 1.917,-18.493 c -0.005,-2.425 -0.015,-2.424 -2.375,-2.645 -0.11,-0.01 -0.216,-0.072 -0.374,-0.127 v -1.181 c 3.421,0 6.778,-0.011 10.136,0.025 0.218,0.002 0.645,0.436 0.608,0.558 -0.086,0.283 -0.363,0.657 -0.622,0.71 -0.559,0.112 -1.185,-0.063 -1.723,0.091 -0.377,0.109 -0.925,0.559 -0.933,0.869 -0.073,2.767 -0.043,5.537 -0.043,8.317 1.067,0 2.022,-0.006 2.977,10e-4 1.739,0.012 2.866,-0.762 3.259,-2.499 0.191,-0.844 0.683,-0.916 1.327,-0.539 0,2.225 0.024,4.421 -0.022,6.616 -0.008,0.364 -0.322,0.723 -0.495,1.084 -0.288,-0.278 -0.596,-0.538 -0.861,-0.838 -0.665,-0.756 -1.173,-1.91 -1.997,-2.206 -1.248,-0.449 -2.71,-0.306 -4.15,-0.422 V 0.002 c 0.97,0 1.818,0.019 2.665,-0.004 5.493,-0.15 5.5,-0.147 8.92,-4.475 0.476,-0.603 0.897,-0.825 1.501,-0.142 C 19.396,-3.361 19.08,-2.09 18.75,-0.823 18.201,1.276 18.197,1.259 16.074,1.258 10.581,1.256 5.089,1.258 -0.404,1.292 -1.327,1.298 -1.829,1.128 -1.39,0.001 -0.918,0.001 -0.459,0.007 0,0" /></g><g
         transform="translate(296.1177,301.5928)"
         id="g1004"
         style="fill:#002142;fill-opacity:1"><path
           inkscape:connector-curvature="0"
           id="path1006"
           style="fill:#002142;fill-opacity:1;fill-rule:nonzero;stroke:none"
           d="M 0,0 C 0.037,0.053 0.016,0.146 0.029,0.307 -0.199,0.476 -0.462,0.67 -0.756,0.889 -1.07,0.544 -1.325,0.257 -1.587,-0.023 c -5.016,-5.373 -13.438,-3.981 -16.282,2.725 -1.211,2.856 -1.48,5.831 -0.636,8.843 0.508,1.815 1.371,3.454 2.957,4.582 3.73,2.653 9.14,1.598 11.992,-2.369 0.602,-0.838 0.998,-1.822 1.546,-2.704 0.142,-0.228 0.498,-0.428 0.762,-0.437 0.163,-0.006 0.504,0.394 0.483,0.581 -0.244,2.264 -0.533,4.524 -0.839,6.781 -0.023,0.177 -0.252,0.455 -0.395,0.461 -0.221,0.01 -0.524,-0.118 -0.66,-0.291 -0.179,-0.229 -0.23,-0.558 -0.385,-0.976 -0.385,0.148 -0.676,0.248 -0.956,0.37 -3.019,1.311 -6.151,1.743 -9.407,1.221 C -23.201,17.193 -26.451,6.205 -21.37,-0.833 -17.047,-6.82 -5.473,-7.895 0,0" /></g><g
         transform="translate(438.5156,296.0752)"
         id="g1008"
         style="fill:#002142;fill-opacity:1"><path
           inkscape:connector-curvature="0"
           id="path1010"
           style="fill:#002142;fill-opacity:1;fill-rule:nonzero;stroke:none"
           d="M 0,0 C 5.171,-0.447 9.245,1.481 12.377,5.672 12.064,5.946 11.813,6.167 11.508,6.435 11.182,6.079 10.902,5.766 10.613,5.461 6.543,1.174 -0.582,1.163 -4.057,5.589 c -2.79,3.554 -3.405,7.664 -2.044,11.94 1.471,4.622 5.593,6.612 10.222,5.108 2.878,-0.936 4.677,-3.012 5.933,-5.67 0.169,-0.359 0.633,-0.577 0.961,-0.861 0.128,0.415 0.395,0.844 0.358,1.244 -0.157,1.69 -0.374,3.376 -0.636,5.053 -0.086,0.548 -0.377,1.065 -0.574,1.595 C 9.79,23.63 9.417,23.262 8.948,22.799 8.836,22.838 8.541,22.918 8.268,23.042 5.863,24.136 3.331,24.567 0.707,24.481 -9.575,24.146 -14.353,13.743 -9.795,5.708 -7.678,1.978 -4.165,0.36 0,0" /></g><g
         transform="translate(387.3516,296.0654)"
         id="g1012"
         style="fill:#002142;fill-opacity:1"><path
           inkscape:connector-curvature="0"
           id="path1014"
           style="fill:#002142;fill-opacity:1;fill-rule:nonzero;stroke:none"
           d="M 0,0 C 5.125,-0.412 9.159,1.525 12.259,5.693 11.939,5.966 11.688,6.181 11.385,6.439 11.079,6.108 10.82,5.829 10.563,5.549 6.381,1.027 -1.097,1.173 -4.476,5.971 c -2.476,3.516 -3.031,7.454 -1.75,11.591 1.886,6.088 8.142,6.49 11.737,4.437 1.995,-1.139 3.34,-2.815 4.339,-4.836 0.219,-0.444 0.148,-1.309 1.065,-1.038 0.941,0.277 0.343,0.988 0.304,1.459 -0.137,1.653 -0.35,3.302 -0.602,4.942 -0.078,0.51 -0.369,0.987 -0.562,1.479 C 9.678,23.641 9.301,23.276 8.822,22.812 8.725,22.847 8.434,22.927 8.162,23.05 5.758,24.144 3.225,24.578 0.6,24.492 -9.709,24.152 -14.398,13.789 -9.971,5.815 -7.839,1.976 -4.251,0.341 0,0" /></g><g
         transform="translate(439.2734,290.7822)"
         id="g1016"
         style="fill:#002142;fill-opacity:1"><path
           inkscape:connector-curvature="0"
           id="path1018"
           style="fill:#002142;fill-opacity:1;fill-rule:nonzero;stroke:none"
           d="m 0,0 c -5.662,1.15 -10.503,-2.938 -10.507,-8.756 -10e-4,-0.607 0.15,-0.89 0.832,-0.945 1.2,-0.097 1.914,0.214 2.293,1.498 0.498,1.688 1.889,2.518 3.663,2.386 1.035,-0.079 2.068,-0.275 3.088,-0.482 3.368,-0.684 6.711,-1.535 10.106,-2.03 1.236,-0.18 2.792,0.134 3.855,0.785 3.045,1.864 3.898,4.967 4.149,8.377 -2.079,0.295 -2.08,0.295 -2.696,-1.269 -0.59,-1.496 -1.507,-2.119 -3.124,-2.065 -0.576,0.019 -1.161,0.075 -1.721,0.203 C 6.623,-1.541 3.33,-0.677 0,0" /></g><g
         transform="translate(562.6104,310.04)"
         id="g1020"
         style="fill:#002142;fill-opacity:1"><path
           inkscape:connector-curvature="0"
           id="path1022"
           style="fill:#002142;fill-opacity:1;fill-rule:nonzero;stroke:none"
           d="M 0,0 C -0.535,0.218 -1.101,0.364 -1.638,0.577 -2.965,1.102 -4.335,1.549 -5.592,2.208 -7.09,2.994 -7.703,4.529 -7.387,6.129 -7.075,7.705 -5.993,8.81 -4.35,9.061 -2.441,9.353 -0.687,8.956 0.558,7.376 1.243,6.507 1.714,5.474 2.336,4.55 2.485,4.328 2.852,4.136 3.111,4.145 3.273,4.15 3.572,4.57 3.554,4.781 3.389,6.657 3.166,8.528 2.961,10.4 2.877,10.486 2.792,10.572 2.708,10.659 1.723,9.313 0.643,9.942 -0.481,10.199 c -2.218,0.507 -4.475,0.628 -6.591,-0.393 -2.032,-0.981 -3.623,-2.431 -3.871,-4.837 -0.268,-2.607 0.427,-4.872 2.845,-6.242 1.438,-0.816 2.984,-1.44 4.479,-2.157 1.076,-0.515 2.217,-0.935 3.205,-1.586 1.538,-1.011 1.822,-2.604 1.558,-4.312 -0.249,-1.606 -1.353,-2.456 -2.802,-2.923 -2.55,-0.822 -5.291,0.147 -6.626,2.464 -0.527,0.913 -0.718,2.014 -1.127,3.002 -0.119,0.286 -0.439,0.533 -0.727,0.681 -0.083,0.042 -0.526,-0.307 -0.55,-0.505 -0.22,-1.88 -0.398,-3.765 -0.552,-5.652 -0.018,-0.214 0.148,-0.595 0.298,-0.634 0.192,-0.048 0.557,0.106 0.668,0.285 0.481,0.781 1.01,0.506 1.554,0.133 1.769,-1.212 3.783,-1.532 5.856,-1.55 3.913,-0.035 6.798,2.253 7.521,5.891 C 5.408,-4.356 3.807,-1.55 0,0" /></g><g
         transform="translate(371.2363,297.7607)"
         id="g1024"
         style="fill:#002142;fill-opacity:1"><path
           inkscape:connector-curvature="0"
           id="path1026"
           style="fill:#002142;fill-opacity:1;fill-rule:nonzero;stroke:none"
           d="m 0,0 c -0.115,0.009 -0.231,0 -0.348,0.002 -1.635,0.027 -1.798,0.177 -1.799,1.811 -0.008,5.72 -0.008,11.44 -0.005,17.16 0.002,2.01 0.064,2.038 2.059,2.173 0.329,0.023 0.634,0.407 0.949,0.624 -0.321,0.209 -0.639,0.595 -0.962,0.6 -3.211,0.046 -6.423,0.031 -9.635,0.026 -0.222,0 -0.443,-0.055 -0.695,-0.089 v -1.195 c 0.704,0 1.349,0 1.996,-10e-4 C -7.4,21.11 -6.867,20.61 -6.871,19.552 -6.896,13.484 -6.917,7.418 -6.935,1.351 -6.937,0.428 -7.418,0.031 -8.309,0.015 -8.945,0.004 -9.581,-0.048 -10.215,-0.081 v -1.19 c 0.32,-0.022 0.584,-0.055 0.848,-0.055 3.135,-0.003 6.268,-0.005 9.403,0.002 0.474,0.001 1.067,-0.171 1.048,0.665 C 1.065,0.158 0.47,-0.038 0,0" /></g><g
         transform="translate(326.4873,318.8613)"
         id="g1028"
         style="fill:#002142;fill-opacity:1"><path
           inkscape:connector-curvature="0"
           id="path1030"
           style="fill:#002142;fill-opacity:1;fill-rule:nonzero;stroke:none"
           d="m 0,0 c 0.932,-0.021 1.443,-0.501 1.441,-1.442 -0.008,-6.107 -0.024,-12.213 -0.044,-18.32 -0.002,-0.911 -0.511,-1.311 -1.399,-1.325 -0.637,-0.009 -1.272,-0.062 -1.971,-0.1 0.024,-0.472 0.04,-0.802 0.059,-1.178 h 11.16 c 0.429,1.136 -0.142,1.285 -1.044,1.278 -1.779,-0.013 -2.035,0.163 -2.04,1.448 -0.019,6.108 -0.001,12.215 -0.017,18.322 -0.002,0.898 0.459,1.252 1.267,1.311 C 7.974,0.035 8.537,0.06 9.046,0.089 9.399,1.182 8.901,1.314 8.086,1.307 5.028,1.275 1.972,1.297 -1.086,1.292 -1.422,1.292 -1.757,1.252 -2.135,1.228 -2.157,0.955 -2.187,0.77 -2.184,0.584 -2.181,0.439 -2.136,0.296 -2.083,0.003 -1.372,0.003 -0.686,0.016 0,0" /></g><g
         transform="translate(453.9297,318.8789)"
         id="g1032"
         style="fill:#002142;fill-opacity:1"><path
           inkscape:connector-curvature="0"
           id="path1034"
           style="fill:#002142;fill-opacity:1;fill-rule:nonzero;stroke:none"
           d="m 0,0 c 2.377,-0.031 2.491,-0.129 2.493,-2.487 0.003,-5.447 -0.005,-10.894 -0.018,-16.34 -0.005,-2.178 -0.079,-2.24 -2.313,-2.29 -1.15,-0.026 -1.236,-0.154 -0.853,-1.266 h 10.985 c 0.339,0.983 0.002,1.287 -0.951,1.283 -2.036,-0.009 -2.128,0.104 -2.134,2.18 -0.015,5.369 -0.02,10.739 -0.011,16.109 0.004,2.817 -0.143,2.738 2.698,2.857 0.066,0.003 0.128,0.07 0.291,0.166 -0.019,0.306 -0.04,0.656 -0.062,1.035 H -0.968 C -1.163,0.016 -1.163,0.016 0,0" /></g><g
         transform="matrix(0.93277139,0,0,1,195.47763,237.84752)"
         id="g948"
         style="fill:#002142;fill-opacity:1"><path
           inkscape:connector-curvature="0"
           id="path950"
           style="fill:#002142;fill-opacity:1;fill-rule:nonzero;stroke:none"
           d="m 0,0 c -10.738,-13.091 -25.018,-19.088 -41.404,-19.446 -16.153,0.297 -29.698,5.749 -40.403,17.398 -9.434,10.268 -13.656,22.508 -12.258,36.42 1.231,12.251 6.775,22.424 15.934,30.625 7.964,7.131 17.284,11.514 27.846,13.029 14.27,2.047 27.557,-0.672 39.55,-8.879 C -0.935,62.44 5.958,53.505 9.054,42.003 13.217,26.531 10.128,12.348 0,0 m -2.685,66.854 c -12.98,11.667 -28.351,16.295 -45.643,14.53 -12.421,-1.269 -23.401,-6.041 -32.557,-14.549 -12.354,-11.478 -18.149,-25.681 -16.44,-42.553 1.288,-12.715 7.041,-23.367 16.502,-31.892 12.162,-10.959 26.595,-15.681 42.888,-14.728 12.378,0.725 23.493,4.93 33.044,12.845 12.229,10.134 18.673,23.17 19.055,39.208 -0.114,1.767 -0.139,3.629 -0.366,5.466 -1.556,12.593 -7.074,23.215 -16.483,31.673" /></g><g
         transform="matrix(0.93277139,0,0,1,188.746,244.32892)"
         id="g1036"
         style="fill:#800000"><path
           inkscape:connector-curvature="0"
           id="path1038"
           style="fill:#800000;fill-opacity:1;fill-rule:nonzero;stroke:none"
           d="m 0,0 c -7.207,-9.065 -16.605,-14.371 -28.057,-16.05 -9.135,-1.34 -17.929,-0.09 -26.179,4.03 -11.571,5.778 -19.262,14.826 -22.07,27.598 -1.753,7.972 -0.816,15.733 2.593,23.184 0.31,0.678 0.714,0.777 1.34,0.775 4.45,-0.01 8.9,0.003 13.35,0.003 1.756,0 2.108,-0.319 2.114,-2.102 0.014,-4.291 -0.009,-8.58 -0.022,-12.87 -0.005,-1.97 -0.019,-3.941 -0.032,-5.912 -0.011,-1.689 -0.245,-1.923 -1.941,-1.965 -0.304,-0.007 -0.607,-0.035 -1.076,-0.063 0.026,-0.49 0.046,-0.857 0.068,-1.268 1.821,0 3.551,0.01 5.281,-0.003 1.548,-0.01 3.098,-10e-4 4.642,-0.086 1.032,-0.056 1.343,0.314 0.988,1.422 -0.459,0 -0.954,0.042 -1.439,-0.008 -1.042,-0.111 -1.599,0.451 -1.619,1.37 -0.061,2.847 -0.022,5.698 -0.022,8.656 1.579,0.381 2.968,-0.129 3.976,-1.472 1.134,-1.511 2.16,-3.106 3.203,-4.683 0.916,-1.385 1.791,-2.796 2.682,-4.197 0.519,-0.815 1.195,-1.13 2.219,-1.094 2.696,0.09 5.397,0.03 8.255,0.03 -0.272,-0.702 -0.498,-1.339 -0.764,-1.96 -0.547,-1.276 -1.159,-2.526 -1.664,-3.819 -0.662,-1.693 -1.636,-2.871 -3.664,-2.756 -0.224,0.012 -0.472,-0.418 -0.708,-0.643 0.248,-0.254 0.491,-0.722 0.744,-0.727 2.706,-0.054 5.414,-0.025 8.121,-0.04 1.058,-0.006 0.756,0.682 0.774,1.368 -0.753,0.04 -1.437,0.061 -2.119,0.116 -0.952,0.077 -1.472,0.544 -1.151,1.535 0.699,2.165 1.424,4.322 2.202,6.461 0.089,0.246 0.576,0.487 0.883,0.492 2.476,0.04 4.953,0.054 7.428,-0.01 0.36,-0.01 0.909,-0.405 1.029,-0.743 0.713,-1.997 1.349,-4.022 1.961,-6.053 0.403,-1.341 0.164,-1.621 -1.28,-1.718 -0.302,-0.021 -0.604,-0.049 -0.91,-0.073 -0.376,-1.087 0.012,-1.388 1.069,-1.385 7.39,0.025 14.78,0.004 22.17,-0.006 0.301,0 0.603,-0.026 1.208,-0.055 C 2.322,3.408 1.28,1.609 0,0 m -52.084,38.438 c 0.003,0.797 0.499,1.229 1.27,1.183 1.148,-0.068 2.334,-0.077 3.427,-0.383 2.504,-0.7 3.831,-2.506 3.893,-4.986 0.061,-2.435 -1.596,-4.992 -3.947,-5.707 -1.442,-0.438 -2.991,-0.525 -4.65,-0.796 0,3.833 -0.01,7.261 0.007,10.689 m 20.902,-21.783 h 1.411 c -0.105,-1.126 -0.673,-1.43 -1.743,-1.169 0.117,0.41 0.224,0.789 0.332,1.169 m 5.987,10.752 c 0.167,-0.014 0.334,-0.029 0.501,-0.044 1.123,-3.449 2.247,-6.899 3.408,-10.467 h -7.95 c 1.372,3.57 2.707,7.041 4.041,10.511 M 8.457,6.783 C 2.381,6.787 -3.694,6.788 -9.77,6.796 c -2.168,0.003 -2.995,0.516 -3.744,2.572 -2.586,7.105 -5.128,14.225 -7.694,21.337 -0.177,0.49 -0.411,0.959 -0.606,1.41 -1.696,-0.841 -3.265,-1.618 -4.68,-2.319 -0.042,-0.704 0.071,-1.358 -0.137,-1.885 -1.483,-3.759 -3.031,-7.491 -4.558,-11.232 -1.117,-0.003 -2.234,-0.003 -3.351,-0.008 -1.194,-0.005 -2.157,0.399 -2.893,1.399 -1.465,1.992 -2.956,3.965 -4.491,5.904 -1.011,1.276 -2.116,2.478 -3.153,3.684 0.56,0.157 1.382,0.343 2.171,0.619 2.607,0.912 4.175,2.68 4.473,5.49 0.281,2.657 -1.002,4.504 -3.196,5.673 -1.265,0.674 -2.734,1.233 -4.142,1.315 -3.43,0.2 -6.878,0.09 -10.318,0.107 -7.12,0.036 -14.239,0.067 -21.358,0.126 -0.703,0.006 -1.094,-0.164 -1.398,-0.86 -3.23,-7.416 -4.386,-15.152 -3.08,-23.11 2.512,-15.298 11.197,-26.208 24.814,-33.193 10.091,-5.177 20.906,-6.541 32.039,-4.413 11.733,2.243 21.522,7.933 29.057,17.289 2.429,3.018 4.397,6.32 5.963,10.082 -0.595,0 -1.044,-0.001 -1.491,0" /></g><g
         transform="matrix(0.93277139,0,0,1,200.9349,271.69712)"
         id="g1040"
         style="fill:#800000"><path
           inkscape:connector-curvature="0"
           id="path1042"
           style="fill:#800000;fill-opacity:1;fill-rule:nonzero;stroke:none"
           d="m 0,0 c -1.667,14.34 -8.961,25.256 -21.056,32.871 -11.069,6.969 -23.252,9.047 -36.089,6.664 -10.282,-1.909 -19.171,-6.631 -26.377,-14.264 -2.106,-2.23 -3.882,-4.771 -5.809,-7.17 0.102,-0.134 0.205,-0.268 0.308,-0.403 1.499,0 3.002,0.063 4.497,-0.021 0.996,-0.057 1.642,0.257 2.231,1.069 2.148,2.962 4.721,5.542 7.649,7.72 10.669,7.938 22.65,10.632 35.651,8.2 10.609,-1.984 19.452,-7.23 26.023,-15.886 6.912,-9.105 9.323,-19.343 7.092,-30.6 -0.305,-1.538 -0.745,-3.049 -1.127,-4.598 h 5.39 C 0.068,-11.024 0.644,-5.538 0,0" /></g></g></g></svg>